<?xml version="1.0" encoding="UTF-8"?>
<svg xmlns="http://www.w3.org/2000/svg" xmlns:xlink="http://www.w3.org/1999/xlink" width="150px" height="116px" viewBox="0 0 150 116" version="1.1">
<g id="surface1">
<path style=" stroke:none;fill-rule:nonzero;fill:rgb(42.352941%,38.823529%,100%);fill-opacity:1;" d="M 108.777344 75.484375 L 89.34375 65.453125 C 88.734375 65.140625 88.496094 64.390625 88.808594 63.777344 L 90.011719 61.445312 C 90.324219 60.832031 91.074219 60.59375 91.6875 60.90625 L 111.117188 70.9375 C 111.726562 71.253906 111.96875 72.003906 111.652344 72.613281 L 110.453125 74.949219 C 110.300781 75.242188 110.039062 75.464844 109.726562 75.5625 C 109.601562 75.601562 109.472656 75.621094 109.34375 75.621094 C 109.144531 75.621094 108.953125 75.574219 108.777344 75.484375 Z M 108.777344 75.484375 "/>
<path style=" stroke:none;fill-rule:nonzero;fill:rgb(18.431373%,18.039216%,25.490196%);fill-opacity:1;" d="M 102.851562 66.101562 C 103.160156 65.980469 103.507812 65.992188 103.808594 66.128906 L 110.179688 69.652344 C 111.625 70.453125 112.191406 72.246094 111.46875 73.734375 L 111.386719 73.695312 L 111.46875 73.734375 C 110.777344 75.152344 109.136719 75.828125 107.652344 75.308594 L 100.746094 72.890625 C 100.441406 72.757812 100.207031 72.511719 100.085938 72.203125 C 99.96875 71.894531 99.976562 71.550781 100.109375 71.25 L 102.164062 66.761719 C 102.199219 66.679688 102.242188 66.601562 102.292969 66.53125 C 102.433594 66.335938 102.628906 66.1875 102.851562 66.101562 Z M 102.851562 66.101562 "/>
<path style=" stroke:none;fill-rule:nonzero;fill:rgb(42.352941%,38.823529%,100%);fill-opacity:1;" d="M 127.015625 55.503906 C 127.015625 60.761719 122.757812 65.023438 117.503906 65.023438 C 112.25 65.023438 107.992188 60.761719 107.992188 55.503906 C 107.992188 50.246094 112.25 45.980469 117.503906 45.980469 C 122.757812 45.980469 127.015625 50.246094 127.015625 55.503906 Z M 127.015625 55.503906 "/>
<path style=" stroke:none;fill-rule:nonzero;fill:rgb(42.352941%,38.823529%,100%);fill-opacity:1;" d="M 116.335938 114.722656 L 116.335938 92.835938 C 116.335938 92.148438 116.894531 91.589844 117.582031 91.589844 L 120.203125 91.589844 C 120.890625 91.589844 121.445312 92.148438 121.449219 92.835938 L 121.449219 114.722656 C 121.445312 115.410156 120.890625 115.964844 120.203125 115.96875 L 117.582031 115.96875 C 116.894531 115.964844 116.335938 115.410156 116.335938 114.722656 Z M 116.335938 114.722656 "/>
<path style=" stroke:none;fill-rule:nonzero;fill:rgb(42.352941%,38.823529%,100%);fill-opacity:1;" d="M 110.648438 114.722656 L 110.648438 92.835938 C 110.648438 92.148438 111.207031 91.589844 111.894531 91.589844 L 114.515625 91.589844 C 115.203125 91.589844 115.761719 92.148438 115.761719 92.835938 L 115.761719 114.722656 C 115.761719 115.410156 115.203125 115.964844 114.515625 115.96875 L 111.894531 115.96875 C 111.207031 115.964844 110.648438 115.410156 110.648438 114.722656 Z M 110.648438 114.722656 "/>
<path style=" stroke:none;fill-rule:nonzero;fill:rgb(18.431373%,18.039216%,25.490196%);fill-opacity:1;" d="M 117.703125 59.03125 L 117.714844 58.675781 C 117.050781 58.660156 116.46875 58.617188 116.03125 58.296875 C 115.78125 58.101562 115.625 57.808594 115.609375 57.492188 C 115.59375 57.296875 115.667969 57.105469 115.8125 56.976562 C 116.105469 56.730469 116.570312 56.808594 116.914062 56.964844 L 117.207031 57.101562 L 116.644531 52.976562 L 116.289062 53.023438 L 116.769531 56.53125 C 116.308594 56.398438 115.878906 56.457031 115.582031 56.703125 C 115.355469 56.902344 115.230469 57.199219 115.253906 57.503906 C 115.273438 57.929688 115.480469 58.324219 115.820312 58.582031 C 116.382812 58.996094 117.117188 59.015625 117.703125 59.03125 Z M 117.703125 59.03125 "/>
<path style=" stroke:none;fill-rule:nonzero;fill:rgb(18.431373%,18.039216%,25.490196%);fill-opacity:1;" d="M 112.632812 53.324219 L 114.550781 53.324219 L 114.550781 53.683594 L 112.632812 53.683594 Z M 112.632812 53.324219 "/>
<path style=" stroke:none;fill-rule:nonzero;fill:rgb(18.431373%,18.039216%,25.490196%);fill-opacity:1;" d="M 118.675781 53.324219 L 120.589844 53.324219 L 120.589844 53.683594 L 118.675781 53.683594 Z M 118.675781 53.324219 "/>
<path style=" stroke:none;fill-rule:nonzero;fill:rgb(42.352941%,38.823529%,100%);fill-opacity:1;" d="M 126.605469 96.457031 L 123.316406 74.820312 C 123.214844 74.140625 123.679688 73.507812 124.359375 73.402344 L 126.953125 73.007812 C 127.632812 72.902344 128.265625 73.371094 128.367188 74.050781 L 131.660156 95.6875 C 131.761719 96.367188 131.296875 97 130.617188 97.105469 L 128.023438 97.5 C 127.695312 97.550781 127.363281 97.46875 127.097656 97.273438 C 126.832031 97.078125 126.65625 96.785156 126.605469 96.457031 Z M 126.605469 96.457031 "/>
<path style=" stroke:none;fill-rule:nonzero;fill:rgb(18.431373%,18.039216%,25.490196%);fill-opacity:1;" d="M 124.0625 82.570312 C 123.785156 82.390625 123.585938 82.105469 123.519531 81.777344 L 122.628906 74.546875 C 122.425781 72.90625 123.542969 71.390625 125.171875 71.105469 L 125.1875 71.191406 L 125.171875 71.105469 C 126.722656 70.832031 128.234375 71.761719 128.6875 73.273438 L 130.789062 80.289062 C 130.859375 80.609375 130.796875 80.949219 130.617188 81.226562 C 130.441406 81.503906 130.15625 81.699219 129.835938 81.765625 L 125 82.742188 C 124.914062 82.761719 124.824219 82.769531 124.734375 82.769531 C 124.496094 82.769531 124.265625 82.699219 124.0625 82.570312 Z M 124.0625 82.570312 "/>
<path style=" stroke:none;fill-rule:nonzero;fill:rgb(18.431373%,18.039216%,25.490196%);fill-opacity:1;" d="M 124.320312 98.207031 L 98.898438 98.207031 C 98.375 98.207031 97.890625 97.9375 97.613281 97.488281 C 97.339844 97.042969 97.316406 96.484375 97.550781 96.015625 L 109.839844 71.550781 C 111.597656 68.050781 115.527344 66.21875 119.335938 67.125 C 123.140625 68.027344 125.828125 71.433594 125.828125 75.347656 L 125.828125 96.695312 C 125.828125 97.53125 125.152344 98.207031 124.320312 98.207031 Z M 124.320312 98.207031 "/>
<path style=" stroke:none;fill-rule:nonzero;fill:rgb(18.431373%,18.039216%,25.490196%);fill-opacity:1;" d="M 117.839844 47.648438 C 115.894531 48.082031 114.25 49.351562 112.292969 49.75 C 111.402344 49.929688 110.417969 49.921875 109.597656 49.480469 C 108.992188 49.152344 108.527344 48.609375 108.296875 47.957031 C 107.828125 46.605469 108.082031 45.109375 108.964844 43.984375 C 110.066406 42.636719 111.816406 42.015625 113.496094 41.839844 C 116.863281 41.492188 120.316406 42.601562 123.054688 44.535156 C 125.882812 46.53125 128.054688 49.527344 128.78125 52.941406 C 129.167969 54.761719 129.132812 56.703125 128.46875 58.457031 C 127.828125 60.140625 126.570312 61.511719 124.953125 62.292969 C 124.566406 62.480469 124.164062 62.628906 123.75 62.742188 C 123.613281 62.785156 123.535156 62.925781 123.574219 63.066406 C 123.613281 63.203125 123.753906 63.289062 123.894531 63.253906 C 125.710938 62.757812 127.28125 61.601562 128.292969 60.011719 C 129.335938 58.34375 129.6875 56.300781 129.523438 54.359375 C 129.214844 50.605469 127.152344 47.15625 124.269531 44.792969 C 121.5 42.523438 117.917969 41.144531 114.316406 41.253906 C 112.511719 41.308594 110.632812 41.765625 109.230469 42.960938 C 108 44 107.375 45.589844 107.570312 47.191406 C 107.652344 47.929688 107.941406 48.625 108.410156 49.199219 C 108.984375 49.847656 109.777344 50.257812 110.636719 50.351562 C 112.769531 50.628906 114.613281 49.421875 116.496094 48.644531 C 116.976562 48.441406 117.472656 48.28125 117.984375 48.164062 C 118.316406 48.085938 118.175781 47.574219 117.839844 47.648438 Z M 117.839844 47.648438 "/>
<path style=" stroke:none;fill-rule:nonzero;fill:rgb(18.431373%,18.039216%,25.490196%);fill-opacity:1;" d="M 123.191406 43.875 C 122.425781 41.011719 124.421875 38.027344 127.132812 37.132812 C 128.6875 36.648438 130.359375 36.667969 131.902344 37.1875 C 133.410156 37.695312 134.761719 38.578125 135.835938 39.753906 C 138.210938 42.285156 139.265625 45.703125 139.757812 49.070312 C 140.265625 52.550781 139.980469 56.359375 141.757812 59.519531 C 142.492188 60.828125 143.585938 61.976562 145 62.542969 C 146.320312 63.066406 147.898438 63.070312 149.164062 62.386719 C 149.46875 62.21875 149.75 62.015625 150 61.773438 C 150.25 61.539062 149.871094 61.160156 149.621094 61.398438 C 148.566406 62.398438 146.988281 62.585938 145.628906 62.191406 C 144.144531 61.765625 143.003906 60.625 142.25 59.308594 C 141.382812 57.789062 141.019531 56.054688 140.820312 54.332031 C 140.605469 52.449219 140.523438 50.558594 140.234375 48.683594 C 139.714844 45.304688 138.59375 41.914062 136.210938 39.378906 C 135.121094 38.191406 133.765625 37.289062 132.253906 36.742188 C 130.695312 36.183594 129.007812 36.097656 127.40625 36.496094 C 125.945312 36.875 124.660156 37.738281 123.761719 38.949219 C 122.886719 40.097656 122.441406 41.515625 122.503906 42.957031 C 122.527344 43.316406 122.585938 43.671875 122.675781 44.015625 C 122.71875 44.15625 122.863281 44.234375 123.003906 44.195312 C 123.140625 44.15625 123.222656 44.015625 123.191406 43.875 Z M 123.191406 43.875 "/>
<path style=" stroke:none;fill-rule:nonzero;fill:rgb(80%,80%,80%);fill-opacity:1;" d="M 18.53125 68.140625 L 3.019531 68.140625 C 1.351562 68.140625 0 66.785156 0 65.117188 L 0 3.023438 C 0 1.355469 1.351562 0 3.019531 0 L 45.085938 0 L 52.785156 6.882812 L 52.785156 19.394531 L 52.429688 19.394531 L 52.429688 7.039062 L 44.949219 0.355469 L 3.019531 0.355469 C 1.550781 0.359375 0.355469 1.550781 0.355469 3.023438 L 0.355469 65.117188 C 0.355469 66.589844 1.550781 67.785156 3.019531 67.785156 L 18.53125 67.785156 Z M 18.53125 68.140625 "/>
<path style=" stroke:none;fill-rule:nonzero;fill:rgb(80%,80%,80%);fill-opacity:1;" d="M 52.605469 7.117188 L 47.808594 7.117188 C 46.140625 7.113281 44.789062 5.761719 44.785156 4.09375 L 44.785156 0.179688 C 44.785156 0.078125 44.867188 0 44.964844 0 C 45.0625 0 45.140625 0.078125 45.140625 0.179688 L 45.140625 4.09375 C 45.144531 5.566406 46.335938 6.757812 47.808594 6.761719 L 52.605469 6.761719 C 52.703125 6.761719 52.785156 6.839844 52.785156 6.9375 C 52.785156 7.035156 52.703125 7.117188 52.605469 7.117188 Z M 52.605469 7.117188 "/>
<path style=" stroke:none;fill-rule:nonzero;fill:rgb(90.196078%,90.196078%,90.196078%);fill-opacity:1;" d="M 46.660156 16.101562 L 6.136719 16.101562 C 5.351562 16.101562 4.71875 16.738281 4.71875 17.523438 C 4.71875 18.3125 5.351562 18.949219 6.136719 18.949219 L 46.660156 18.949219 C 47.445312 18.949219 48.082031 18.3125 48.082031 17.523438 C 48.082031 16.738281 47.445312 16.101562 46.660156 16.101562 Z M 46.660156 16.101562 "/>
<path style=" stroke:none;fill-rule:nonzero;fill:rgb(90.196078%,90.196078%,90.196078%);fill-opacity:1;" d="M 26.222656 10.050781 L 6.136719 10.050781 C 5.351562 10.050781 4.71875 10.6875 4.71875 11.476562 C 4.71875 12.261719 5.351562 12.898438 6.136719 12.898438 L 26.222656 12.898438 C 27.007812 12.898438 27.644531 12.261719 27.644531 11.476562 C 27.644531 10.6875 27.007812 10.050781 26.222656 10.050781 Z M 26.222656 10.050781 "/>
<path style=" stroke:none;fill-rule:nonzero;fill:rgb(90.196078%,90.196078%,90.196078%);fill-opacity:1;" d="M 6.136719 28.019531 C 5.351562 28.019531 4.71875 28.660156 4.71875 29.445312 C 4.71875 30.230469 5.351562 30.867188 6.136719 30.867188 L 18.839844 30.867188 L 18.839844 28.019531 Z M 6.136719 28.019531 "/>
<path style=" stroke:none;fill-rule:nonzero;fill:rgb(90.196078%,90.196078%,90.196078%);fill-opacity:1;" d="M 6.136719 21.972656 C 5.351562 21.972656 4.71875 22.609375 4.71875 23.394531 C 4.71875 24.183594 5.351562 24.820312 6.136719 24.820312 L 18.839844 24.820312 L 18.839844 21.972656 Z M 6.136719 21.972656 "/>
<path style=" stroke:none;fill-rule:nonzero;fill:rgb(90.196078%,90.196078%,90.196078%);fill-opacity:1;" d="M 18.925781 58.179688 L 7.546875 58.179688 C 5.925781 58.175781 4.617188 56.863281 4.613281 55.242188 L 4.613281 40.296875 C 4.617188 38.675781 5.925781 37.363281 7.546875 37.363281 L 18.925781 37.363281 Z M 18.925781 58.179688 "/>
<path style=" stroke:none;fill-rule:nonzero;fill:rgb(80%,80%,80%);fill-opacity:1;" d="M 37.28125 87.265625 L 21.769531 87.265625 C 20.101562 87.265625 18.75 85.910156 18.75 84.242188 L 18.75 22.148438 C 18.75 20.480469 20.101562 19.128906 21.769531 19.125 L 63.835938 19.125 L 71.535156 26.007812 L 71.535156 37.808594 L 71.179688 37.808594 L 71.179688 26.167969 L 63.699219 19.480469 L 21.769531 19.480469 C 20.300781 19.484375 19.105469 20.675781 19.105469 22.148438 L 19.105469 84.242188 C 19.105469 85.714844 20.300781 86.910156 21.769531 86.910156 L 37.28125 86.910156 Z M 37.28125 87.265625 "/>
<path style=" stroke:none;fill-rule:nonzero;fill:rgb(80%,80%,80%);fill-opacity:1;" d="M 71.355469 26.242188 L 66.558594 26.242188 C 64.890625 26.242188 63.539062 24.886719 63.535156 23.21875 L 63.535156 19.304688 C 63.535156 19.207031 63.617188 19.125 63.714844 19.125 C 63.8125 19.125 63.890625 19.207031 63.890625 19.304688 L 63.890625 23.21875 C 63.894531 24.691406 65.085938 25.886719 66.558594 25.886719 L 71.355469 25.886719 C 71.453125 25.886719 71.535156 25.964844 71.535156 26.0625 C 71.535156 26.164062 71.453125 26.242188 71.355469 26.242188 Z M 71.355469 26.242188 "/>
<path style=" stroke:none;fill-rule:nonzero;fill:rgb(90.196078%,90.196078%,90.196078%);fill-opacity:1;" d="M 65.410156 35.226562 L 24.886719 35.226562 C 24.101562 35.226562 23.46875 35.863281 23.46875 36.648438 C 23.46875 37.4375 24.101562 38.074219 24.886719 38.074219 L 65.410156 38.074219 C 66.195312 38.074219 66.832031 37.4375 66.832031 36.648438 C 66.832031 35.863281 66.195312 35.226562 65.410156 35.226562 Z M 65.410156 35.226562 "/>
<path style=" stroke:none;fill-rule:nonzero;fill:rgb(90.196078%,90.196078%,90.196078%);fill-opacity:1;" d="M 44.972656 29.179688 L 24.886719 29.179688 C 24.101562 29.179688 23.46875 29.816406 23.46875 30.601562 C 23.46875 31.386719 24.101562 32.023438 24.886719 32.023438 L 44.972656 32.023438 C 45.757812 32.023438 46.394531 31.386719 46.394531 30.601562 C 46.394531 29.816406 45.757812 29.179688 44.972656 29.179688 Z M 44.972656 29.179688 "/>
<path style=" stroke:none;fill-rule:nonzero;fill:rgb(90.196078%,90.196078%,90.196078%);fill-opacity:1;" d="M 65.410156 35.226562 L 24.886719 35.226562 C 24.101562 35.226562 23.46875 35.863281 23.46875 36.648438 C 23.46875 37.4375 24.101562 38.074219 24.886719 38.074219 L 65.410156 38.074219 C 66.195312 38.074219 66.832031 37.4375 66.832031 36.648438 C 66.832031 35.863281 66.195312 35.226562 65.410156 35.226562 Z M 65.410156 35.226562 "/>
<path style=" stroke:none;fill-rule:nonzero;fill:rgb(90.196078%,90.196078%,90.196078%);fill-opacity:1;" d="M 44.972656 29.179688 L 24.886719 29.179688 C 24.101562 29.179688 23.46875 29.816406 23.46875 30.601562 C 23.46875 31.386719 24.101562 32.023438 24.886719 32.023438 L 44.972656 32.023438 C 45.757812 32.023438 46.394531 31.386719 46.394531 30.601562 C 46.394531 29.816406 45.757812 29.179688 44.972656 29.179688 Z M 44.972656 29.179688 "/>
<path style=" stroke:none;fill-rule:nonzero;fill:rgb(90.196078%,90.196078%,90.196078%);fill-opacity:1;" d="M 24.886719 47.148438 C 24.101562 47.148438 23.46875 47.785156 23.46875 48.570312 C 23.46875 49.355469 24.101562 49.992188 24.886719 49.992188 L 37.589844 49.992188 L 37.589844 47.148438 Z M 24.886719 47.148438 "/>
<path style=" stroke:none;fill-rule:nonzero;fill:rgb(90.196078%,90.196078%,90.196078%);fill-opacity:1;" d="M 24.886719 41.097656 C 24.101562 41.097656 23.46875 41.734375 23.46875 42.519531 C 23.46875 43.308594 24.101562 43.945312 24.886719 43.945312 L 37.589844 43.945312 L 37.589844 41.097656 Z M 24.886719 41.097656 "/>
<path style=" stroke:none;fill-rule:nonzero;fill:rgb(90.196078%,90.196078%,90.196078%);fill-opacity:1;" d="M 24.886719 47.148438 C 24.101562 47.148438 23.46875 47.785156 23.46875 48.570312 C 23.46875 49.355469 24.101562 49.992188 24.886719 49.992188 L 37.589844 49.992188 L 37.589844 47.148438 Z M 24.886719 47.148438 "/>
<path style=" stroke:none;fill-rule:nonzero;fill:rgb(90.196078%,90.196078%,90.196078%);fill-opacity:1;" d="M 24.886719 41.097656 C 24.101562 41.097656 23.46875 41.734375 23.46875 42.519531 C 23.46875 43.308594 24.101562 43.945312 24.886719 43.945312 L 37.589844 43.945312 L 37.589844 41.097656 Z M 24.886719 41.097656 "/>
<path style=" stroke:none;fill-rule:nonzero;fill:rgb(90.196078%,90.196078%,90.196078%);fill-opacity:1;" d="M 37.675781 77.304688 L 26.296875 77.304688 C 24.675781 77.300781 23.367188 75.988281 23.363281 74.367188 L 23.363281 59.421875 C 23.367188 57.804688 24.675781 56.488281 26.296875 56.488281 L 37.675781 56.488281 Z M 37.675781 77.304688 "/>
<path style=" stroke:none;fill-rule:nonzero;fill:rgb(24.705882%,23.921569%,33.72549%);fill-opacity:1;" d="M 38.679688 38.429688 C 37.78125 38.976562 37.234375 39.957031 37.234375 41.007812 L 37.234375 41.453125 L 37.589844 41.453125 L 37.589844 41.007812 C 37.589844 39.800781 38.402344 38.742188 39.570312 38.429688 Z M 82.320312 37.984375 L 40.253906 37.984375 C 38.585938 37.988281 37.234375 39.339844 37.234375 41.007812 L 37.234375 103.101562 C 37.234375 104.769531 38.585938 106.125 40.253906 106.125 L 86.996094 106.125 C 88.664062 106.125 90.015625 104.769531 90.019531 103.101562 L 90.019531 44.867188 Z M 89.664062 103.101562 C 89.660156 104.574219 88.46875 105.769531 86.996094 105.769531 L 40.253906 105.769531 C 38.78125 105.769531 37.589844 104.574219 37.589844 103.101562 L 37.589844 41.007812 C 37.589844 39.800781 38.402344 38.742188 39.570312 38.429688 C 39.792969 38.371094 40.023438 38.339844 40.253906 38.339844 L 82.183594 38.339844 L 89.664062 45.023438 Z M 38.679688 38.429688 C 37.78125 38.976562 37.234375 39.957031 37.234375 41.007812 L 37.234375 41.453125 L 37.589844 41.453125 L 37.589844 41.007812 C 37.589844 39.800781 38.402344 38.742188 39.570312 38.429688 Z M 38.679688 38.429688 "/>
<path style=" stroke:none;fill-rule:nonzero;fill:rgb(24.705882%,23.921569%,33.72549%);fill-opacity:1;" d="M 89.839844 45.101562 L 85.042969 45.101562 C 83.375 45.097656 82.023438 43.746094 82.019531 42.078125 L 82.019531 38.164062 C 82.019531 38.0625 82.101562 37.984375 82.199219 37.984375 C 82.296875 37.984375 82.375 38.0625 82.375 38.164062 L 82.375 42.078125 C 82.378906 43.550781 83.570312 44.742188 85.042969 44.746094 L 89.839844 44.746094 C 89.9375 44.746094 90.019531 44.824219 90.019531 44.921875 C 90.019531 45.023438 89.9375 45.101562 89.839844 45.101562 Z M 89.839844 45.101562 "/>
<path style=" stroke:none;fill-rule:nonzero;fill:rgb(80%,80%,80%);fill-opacity:1;" d="M 83.894531 56.933594 L 43.371094 56.933594 C 42.585938 56.933594 41.949219 56.296875 41.949219 55.507812 C 41.949219 54.722656 42.585938 54.085938 43.371094 54.085938 L 83.894531 54.085938 C 84.679688 54.085938 85.316406 54.722656 85.316406 55.507812 C 85.316406 56.296875 84.679688 56.933594 83.894531 56.933594 Z M 83.894531 56.933594 "/>
<path style=" stroke:none;fill-rule:nonzero;fill:rgb(80%,80%,80%);fill-opacity:1;" d="M 63.457031 50.882812 L 43.371094 50.882812 C 42.585938 50.882812 41.949219 50.246094 41.949219 49.460938 C 41.949219 48.675781 42.585938 48.035156 43.371094 48.035156 L 63.457031 48.035156 C 64.242188 48.035156 64.878906 48.675781 64.878906 49.460938 C 64.878906 50.246094 64.242188 50.882812 63.457031 50.882812 Z M 63.457031 50.882812 "/>
<path style=" stroke:none;fill-rule:nonzero;fill:rgb(80%,80%,80%);fill-opacity:1;" d="M 83.894531 68.851562 L 43.371094 68.851562 C 42.585938 68.851562 41.949219 68.214844 41.949219 67.429688 C 41.949219 66.644531 42.585938 66.007812 43.371094 66.007812 L 83.894531 66.007812 C 84.679688 66.007812 85.316406 66.644531 85.316406 67.429688 C 85.316406 68.214844 84.679688 68.851562 83.894531 68.851562 Z M 83.894531 68.851562 "/>
<path style=" stroke:none;fill-rule:nonzero;fill:rgb(80%,80%,80%);fill-opacity:1;" d="M 63.457031 62.804688 L 43.371094 62.804688 C 42.585938 62.804688 41.949219 62.167969 41.949219 61.378906 C 41.949219 60.59375 42.585938 59.957031 43.371094 59.957031 L 63.457031 59.957031 C 64.242188 59.957031 64.878906 60.59375 64.878906 61.378906 C 64.878906 62.167969 64.242188 62.804688 63.457031 62.804688 Z M 63.457031 62.804688 "/>
<path style=" stroke:none;fill-rule:nonzero;fill:rgb(42.352941%,38.823529%,100%);fill-opacity:1;" d="M 82.457031 96.164062 L 44.78125 96.164062 C 43.160156 96.160156 41.847656 94.847656 41.847656 93.226562 L 41.847656 78.28125 C 41.847656 76.660156 43.160156 75.347656 44.78125 75.347656 L 82.457031 75.347656 C 84.074219 75.347656 85.386719 76.660156 85.390625 78.28125 L 85.390625 93.226562 C 85.386719 94.847656 84.074219 96.160156 82.457031 96.164062 Z M 82.457031 96.164062 "/>
</g>
</svg>
